<svg width="200" height="200" viewBox="0 0 200 200" fill="none" xmlns="http://www.w3.org/2000/svg">
<rect width="200" height="200" fill="#EBEBEB"/>
<path d="M164.084 85.2214L148.591 82.4045H112.675L84.5063 53.5312H37.3232V54.9397C45.0697 57.0524 52.8162 61.2777 59.1542 66.2073C65.4923 71.1369 71.1261 76.7707 76.0556 83.1087H48.5908C49.9993 85.2214 51.4077 87.3341 53.5204 88.7425V89.4467C61.9711 99.3059 73.2387 106.348 85.9148 110.574L88.7317 111.278H89.4359C93.6613 133.813 88.0275 157.052 72.5345 174.658L70.4218 177.475L81.6894 169.024L110.563 153.531L121.83 110.574L154.929 90.8552L164.084 85.2214ZM148.591 89.4467C147.182 89.4467 145.774 88.0383 145.774 86.6298C145.774 85.2214 147.182 83.8129 148.591 83.8129C149.999 83.8129 151.408 85.2214 151.408 86.6298C151.408 88.0383 149.999 89.4467 148.591 89.4467Z" fill="black"/>
<path d="M163.502 85.3742L152.939 83.2616L154.347 91.008L163.502 85.3742Z" fill="black"/>
</svg>
